<svg width="36" height="36" viewBox="0 0 36 36" fill="none" xmlns="http://www.w3.org/2000/svg">
<g id="ic">
<path id="Union" d="M9.5 13C9.5 11.6193 10.6193 10.5 12 10.5V9.5C10.067 9.5 8.5 11.067 8.5 13H9.5ZM12 10.5H24V9.5H12V10.5ZM24 10.5C25.3807 10.5 26.5 11.6193 26.5 13H27.5C27.5 11.067 25.933 9.5 24 9.5V10.5ZM26.5 13V24H27.5V13H26.5ZM26.5 24C26.5 25.3807 25.3807 26.5 24 26.5V27.5C25.933 27.5 27.5 25.933 27.5 24H26.5ZM24 26.5H12V27.5H24V26.5ZM12 26.5C10.6193 26.5 9.5 25.3807 9.5 24H8.5C8.5 25.933 10.067 27.5 12 27.5V26.5ZM9.5 24V13H8.5V24H9.5Z" fill="#CFCECD"/>
</g>
</svg>
