<svg width="282" height="161" viewBox="0 0 282 161" fill="none" xmlns="http://www.w3.org/2000/svg">
<g clip-path="url(#clip0_2535_6781)">
<path d="M0 16C0 7.16344 7.16344 0 16 0H266C274.837 0 282 7.16344 282 16V161H0V16Z" fill="white"/>
<path d="M0 16C0 7.16344 7.16344 0 16 0H266C274.837 0 282 7.16344 282 16V161H0V16Z" fill="url(#paint0_linear_2535_6781)" fill-opacity="0.4"/>
<mask id="path-2-outside-1_2535_6781" maskUnits="userSpaceOnUse" x="132" y="23.3418" width="131" height="228" fill="black">
<rect fill="white" x="132" y="23.3418" width="131" height="228"/>
<path fill-rule="evenodd" clip-rule="evenodd" d="M192.524 30.1054C192.312 28.0938 193.889 26.3418 195.912 26.3418H199.563C201.62 26.3418 203.208 28.1513 202.941 30.1913L202.079 36.7733C204.749 32.8171 209.657 29.7201 218.597 29.4684C219.944 29.4301 222.828 28.8799 224.882 27.4143C225.353 27.0774 226.104 27.3643 226.079 27.9436C225.871 32.8716 223.771 40.8649 217.825 44.5502C215.82 45.7928 213.653 46.6214 211.504 47.1433C222.113 50.4822 230.924 58.1616 235.65 68.3179C241.758 71.3683 248.461 81.596 242.826 95.0107C241.842 97.354 240.361 99.197 238.578 100.637C239.496 100.865 240.385 101.196 241.225 101.649C246.067 104.26 252.211 109.062 250.729 116.468C249.041 124.908 249.238 125.181 250.852 127.419C251.406 128.188 252.128 129.188 252.997 130.831C254.653 133.958 253.802 136.189 252.056 136.611C256.621 144.798 259.221 154.23 259.221 164.269V206.125C259.221 229.252 240.473 248 217.346 248H176.875C153.748 248 135 229.252 135 206.125V164.269C135 154.631 137.397 145.552 141.628 137.598C140.001 136.152 139.608 133.703 141.876 130.831C145.573 126.147 145.252 123.232 144.791 119.046C144.545 116.812 144.259 114.217 144.522 110.798C145.051 103.918 150.829 101.168 154.713 100.42C153.047 99.0131 151.663 97.2378 150.727 95.0107C145.107 81.6288 151.763 71.4184 157.859 68.3404C164.026 54.6345 177.785 45.3117 193.487 45.3117H194.124L192.524 30.1054Z"/>
</mask>
<path d="M192.524 30.1054L189.54 30.4194L189.54 30.4194L192.524 30.1054ZM202.941 30.1913L205.916 30.5808L205.916 30.5808L202.941 30.1913ZM202.079 36.7733L199.105 36.3838L204.566 38.4516L202.079 36.7733ZM218.597 29.4684L218.681 32.4672L218.682 32.4672L218.597 29.4684ZM224.882 27.4143L226.624 29.856L226.624 29.856L224.882 27.4143ZM226.079 27.9436L229.077 28.0701L229.077 28.0701L226.079 27.9436ZM217.825 44.5502L216.244 42.0002L216.244 42.0002L217.825 44.5502ZM211.504 47.1433L210.796 44.228L200.325 46.7701L210.603 50.0049L211.504 47.1433ZM235.65 68.3179L232.93 69.5836L233.372 70.5336L234.309 71.0018L235.65 68.3179ZM242.826 95.0107L245.592 96.1724L245.592 96.1724L242.826 95.0107ZM238.578 100.637L236.693 98.3024L232.002 102.09L237.852 103.548L238.578 100.637ZM241.225 101.649L239.801 104.29L239.801 104.29L241.225 101.649ZM250.729 116.468L247.788 115.88L247.788 115.88L250.729 116.468ZM250.852 127.419L253.285 125.664L253.285 125.664L250.852 127.419ZM252.997 130.831L255.649 129.427L255.649 129.427L252.997 130.831ZM252.056 136.611L251.352 133.695L247.513 134.623L249.436 138.072L252.056 136.611ZM141.628 137.598L144.277 139.006L145.385 136.923L143.621 135.355L141.628 137.598ZM141.876 130.831L144.231 132.689L144.231 132.689L141.876 130.831ZM144.791 119.046L147.773 118.717L147.773 118.717L144.791 119.046ZM144.522 110.798L147.513 111.028L147.513 111.028L144.522 110.798ZM154.713 100.42L155.281 103.365L161.445 102.177L156.648 98.1273L154.713 100.42ZM150.727 95.0107L147.961 96.1724L147.961 96.1724L150.727 95.0107ZM157.859 68.3404L159.211 71.0184L160.159 70.5398L160.595 69.5714L157.859 68.3404ZM194.124 45.3117V48.3117H197.456L197.107 44.9977L194.124 45.3117ZM195.912 23.3418C192.108 23.3418 189.142 26.6365 189.54 30.4194L195.507 29.7915C195.482 29.5511 195.67 29.3418 195.912 29.3418V23.3418ZM199.563 23.3418H195.912V29.3418H199.563V23.3418ZM205.916 30.5808C206.418 26.7447 203.432 23.3418 199.563 23.3418V29.3418C199.809 29.3418 199.999 29.558 199.967 29.8017L205.916 30.5808ZM205.054 37.1629L205.916 30.5808L199.967 29.8017L199.105 36.3838L205.054 37.1629ZM218.512 26.4696C208.844 26.7418 202.925 30.1578 199.593 35.0951L204.566 38.4516C206.574 35.4764 210.469 32.6984 218.681 32.4672L218.512 26.4696ZM223.139 24.9725C222.481 25.4418 221.595 25.8237 220.655 26.0907C219.714 26.3578 218.904 26.4584 218.511 26.4696L218.682 32.4672C220.411 32.418 223.937 31.7741 226.624 29.856L223.139 24.9725ZM229.077 28.0701C229.153 26.2535 227.953 25.0406 226.826 24.5684C225.745 24.1158 224.322 24.1276 223.139 24.9725L226.624 29.856C225.913 30.3641 225.101 30.351 224.507 30.1024C223.867 29.8343 223.03 29.0544 223.082 27.817L229.077 28.0701ZM219.405 47.1002C223.073 44.8267 225.422 41.3145 226.869 37.8768C228.318 34.4337 228.96 30.8462 229.077 28.0701L223.082 27.817C222.991 29.9689 222.478 32.8421 221.339 35.549C220.197 38.2613 218.522 40.5884 216.244 42.0002L219.405 47.1002ZM212.211 50.0586C214.615 49.4751 217.086 48.5371 219.405 47.1001L216.244 42.0002C214.553 43.0485 212.692 43.7677 210.796 44.228L212.211 50.0586ZM238.37 67.0522C233.286 56.1283 223.813 47.8722 212.404 44.2817L210.603 50.0049C220.412 53.0922 228.561 60.195 232.93 69.5836L238.37 67.0522ZM245.592 96.1724C251.848 81.2774 244.49 69.3793 236.99 65.6339L234.309 71.0018C239.026 73.3573 245.073 81.9146 240.06 93.8489L245.592 96.1724ZM240.462 102.971C242.599 101.245 244.4 99.01 245.592 96.1724L240.06 93.8489C239.284 95.6979 238.122 97.1488 236.693 98.3024L240.462 102.971ZM242.649 99.0084C241.566 98.4249 240.438 98.0085 239.303 97.7256L237.852 103.548C238.553 103.722 239.204 103.968 239.801 104.29L242.649 99.0084ZM253.671 117.056C254.621 112.306 253.076 108.377 250.694 105.39C248.377 102.485 245.231 100.401 242.649 99.0084L239.801 104.29C242.061 105.508 244.408 107.131 246.003 109.131C247.533 111.05 248.319 113.224 247.788 115.88L253.671 117.056ZM253.285 125.664C252.838 125.044 252.711 124.85 252.636 124.688C252.61 124.633 252.561 124.534 252.551 124.184C252.523 123.201 252.8 121.413 253.671 117.056L247.788 115.88C246.971 119.963 246.502 122.532 246.554 124.355C246.584 125.408 246.781 126.324 247.193 127.213C247.556 127.996 248.059 128.675 248.419 129.174L253.285 125.664ZM255.649 129.427C254.682 127.601 253.865 126.469 253.285 125.664L248.419 129.174C248.947 129.906 249.573 130.775 250.346 132.234L255.649 129.427ZM252.761 139.527C254.838 139.025 256.278 137.411 256.73 135.39C257.158 133.476 256.69 131.395 255.649 129.427L250.346 132.234C250.96 133.394 250.894 133.992 250.874 134.08C250.868 134.111 250.882 134.026 250.99 133.911C251.102 133.793 251.24 133.722 251.352 133.695L252.761 139.527ZM262.221 164.269C262.221 153.706 259.483 143.773 254.676 135.15L249.436 138.072C253.758 145.824 256.221 154.754 256.221 164.269H262.221ZM262.221 206.125V164.269H256.221V206.125H262.221ZM217.346 251C242.13 251 262.221 230.909 262.221 206.125H256.221C256.221 227.595 238.816 245 217.346 245V251ZM176.875 251H217.346V245H176.875V251ZM132 206.125C132 230.909 152.091 251 176.875 251V245C155.405 245 138 227.595 138 206.125H132ZM132 164.269V206.125H138V164.269H132ZM138.979 136.189C134.523 144.567 132 154.128 132 164.269H138C138 155.134 140.271 146.538 144.277 139.006L138.979 136.189ZM139.521 128.972C138.09 130.785 137.26 132.769 137.292 134.797C137.325 136.87 138.257 138.615 139.635 139.84L143.621 135.355C143.373 135.135 143.295 134.933 143.291 134.702C143.287 134.425 143.394 133.749 144.231 132.689L139.521 128.972ZM141.809 119.374C142.048 121.547 142.175 122.888 141.938 124.231C141.72 125.468 141.142 126.919 139.521 128.972L144.231 132.689C146.308 130.059 147.417 127.711 147.847 125.273C148.259 122.941 147.995 120.731 147.773 118.717L141.809 119.374ZM141.531 110.568C141.245 114.286 141.56 117.119 141.809 119.374L147.773 118.717C147.529 116.505 147.273 114.148 147.513 111.028L141.531 110.568ZM154.145 97.4737C149.769 98.317 142.217 101.648 141.531 110.568L147.513 111.028C147.885 106.188 151.889 104.019 155.281 103.365L154.145 97.4737ZM147.961 96.1724C149.093 98.8677 150.776 101.022 152.778 102.712L156.648 98.1273C155.318 97.0043 154.232 95.608 153.493 93.8489L147.961 96.1724ZM156.507 65.6624C149.028 69.4382 141.72 81.313 147.961 96.1724L153.493 93.8489C148.493 81.9447 154.497 73.3986 159.211 71.0184L156.507 65.6624ZM193.487 42.3117C176.576 42.3117 161.763 52.3527 155.123 67.1094L160.595 69.5714C166.289 56.9162 178.994 48.3117 193.487 48.3117V42.3117ZM194.124 42.3117H193.487V48.3117H194.124V42.3117ZM189.54 30.4194L191.14 45.6257L197.107 44.9977L195.507 29.7915L189.54 30.4194Z" fill="white" fill-opacity="0.6" mask="url(#path-2-outside-1_2535_6781)"/>
<path d="M42.7383 40.1953V42.1875H35.8828V43.6523H40.7266V48.5547H30.9023V49.707H41.2344V51.6797H28.4023V46.7188H38.2461V45.6055H28.3633V43.6523H33.3828V42.1875H26.5273V40.1953H30.8242C31.3027 38.6914 31.4199 37.5586 31.4492 36.582H27.9727V34.5898H33.8711V35.7422C33.8711 36.8652 33.8711 38.3496 33.3633 40.1953H37.8555C38.2949 38.6914 38.4121 37.5293 38.4609 36.582H34.9648V34.5898H40.8633V35.5469C40.8633 36.6602 40.8633 38.2129 40.3555 40.1953H42.7383ZM57.5141 34.0234V38.8672H59.9164V40.918H57.5141V46.875H55.0141V34.0234H57.5141ZM52.1234 35.4492V37.4414H46.5961V41.9336C49.809 41.9141 51.5766 41.8164 53.5688 41.3867L53.8227 43.3789C51.5961 43.8477 49.5453 43.9453 45.6 43.9453H44.0961V35.4492H52.1234ZM58.1586 49.4922V51.4844H45.9906V45.5078H48.4711V49.4922H58.1586ZM67.1922 38.8672C67.1922 41.7383 68.657 44.8047 71.6453 46.0547L70.2977 48.0078C68.198 47.1191 66.7527 45.3516 65.9617 43.1836C65.1512 45.5371 63.6766 47.4902 61.5867 48.457L60.1609 46.4844C63.1102 45.1758 64.6336 41.875 64.6336 38.8672V37.7734H60.8641V35.7422H70.9031V37.7734H67.1922V38.8672ZM75.1805 34.0234V51.7969H72.6609V34.0234H75.1805ZM91.2062 34.0234V40.8398H93.7258V42.8906H91.2062V51.7578H88.7062V34.0234H91.2062ZM86.4602 35.8398C86.4406 41.1523 84.3703 45.7617 78.3937 48.6914L76.9875 46.7773C81.1965 44.668 83.4523 41.8359 83.9211 37.8711H78.0031V35.8398H86.4602Z" fill="#4A4642"/>
<path d="M41.2402 70.9727V72.9453H36.084V76.7344H43.0176V78.7656H26.748V76.7344H33.6035V72.9453H28.6621V64.2734H41.1035V66.2656H31.1621V70.9727H41.2402ZM50.1762 66.8516C50.1762 68.6875 51.4652 70.6016 54.3559 71.3633L53.2035 73.3359C51.1918 72.7891 49.7758 71.627 48.9848 70.1523C48.1938 71.7734 46.768 73.0332 44.6879 73.6289L43.4965 71.6758C46.3871 70.8945 47.6957 68.8438 47.6957 66.8516H44.1215V64.8789H47.6957V62.9648H50.2152V64.8789H53.7699V66.8516H50.1762ZM57.7348 63.0234V67.3984H60.1371V69.4883H57.7348V73.9219H55.2348V63.0234H57.7348ZM57.7348 74.6445V80.8164H55.2348V76.6367H45.7621V74.6445H57.7348ZM75.7918 63.043V73.9805H73.4285V69.6055H72.0418V73.7852H69.7176V63.2773H72.0418V67.5938H73.4285V63.043H75.7918ZM69.1512 64.7227V66.6953H60.4207V64.7227H63.5652V63.1211H66.0457V64.7227H69.1512ZM64.8152 67.2617C67.0809 67.2617 68.6824 68.5117 68.702 70.3672C68.6824 72.1836 67.0809 73.4727 64.8152 73.4727C62.5887 73.4727 60.9676 72.1836 60.9676 70.3672C60.9676 68.5117 62.5887 67.2617 64.8152 67.2617ZM64.8152 69.0391C63.8387 69.0391 63.1941 69.4883 63.1941 70.3672C63.1941 71.207 63.8387 71.6758 64.8152 71.6758C65.7918 71.6758 66.4363 71.207 66.4559 70.3672C66.4363 69.4883 65.7918 69.0391 64.8152 69.0391ZM67.3348 74.8984C67.3152 76.1973 67.8914 77.5352 69.3074 78.4141C70.7137 77.4863 71.3387 76.0801 71.3582 74.8984V74.5273H73.8387V74.8984C73.8191 76.5586 74.8152 78.1211 77.1785 78.7266L76.0262 80.582C74.3074 80.0645 73.1746 79.0293 72.5691 77.7109C71.9832 79.0195 70.9578 80.1719 69.3465 80.7578C67.6863 80.1816 66.6414 79.0977 66.0848 77.7891C65.4305 79.0391 64.3172 80.0547 62.6863 80.582L61.5145 78.7266C63.8191 78.0625 64.8543 76.4609 64.8543 74.8984V74.5273H67.3348V74.8984ZM82.3059 64.2734C84.7082 64.2734 86.4953 66.2559 86.8566 69.4492H89.9426V63.0234H92.4035V80.8359H89.9426V71.4414H86.8762C86.6125 74.8594 84.7863 76.9492 82.3059 76.9492C79.6105 76.9492 77.677 74.5078 77.6965 70.6016C77.677 66.7344 79.6105 64.2734 82.3059 64.2734ZM82.3059 66.5195C80.9777 66.5195 80.0598 67.9648 80.0793 70.6016C80.0598 73.2578 80.9777 74.6836 82.3059 74.6836C83.6535 74.6836 84.5324 73.2578 84.5324 70.6016C84.5324 67.9648 83.6535 66.5195 82.3059 66.5195ZM110.558 76.6758V78.7266H94.2887V76.6758H97.9215V72.3203C96.5445 71.5 95.7145 70.2402 95.7145 68.668C95.7145 65.7969 98.527 63.8828 102.394 63.8828C106.242 63.8828 109.074 65.7969 109.093 68.668C109.084 70.2012 108.273 71.4512 106.945 72.2812V76.6758H110.558ZM102.394 65.8555C99.8551 65.8555 98.1754 66.8711 98.1754 68.668C98.1754 70.4062 99.8551 71.4805 102.394 71.4805C104.914 71.4805 106.613 70.4062 106.632 68.668C106.613 66.8711 104.914 65.8555 102.394 65.8555ZM100.382 76.6758H104.425V73.2188C103.791 73.3457 103.107 73.4141 102.394 73.4141C101.681 73.4141 101.007 73.3555 100.382 73.2188V76.6758ZM115.217 64.8594L114.963 74.7617H112.463L112.209 64.8594H115.217ZM113.732 79.1758C112.814 79.1758 112.072 78.4336 112.092 77.5352C112.072 76.6367 112.814 75.9141 113.732 75.9141C114.592 75.9141 115.354 76.6367 115.354 77.5352C115.354 78.4336 114.592 79.1758 113.732 79.1758Z" fill="#4A4642"/>
<path d="M218.596 29.4679C202.308 29.9265 199.407 39.8294 199.031 47.166C202.741 48.2371 211.17 48.6735 217.824 44.5497C223.77 40.8645 225.871 32.8711 226.079 27.9431C226.103 27.3639 225.353 27.077 224.881 27.4138C222.828 28.8795 219.943 29.4296 218.596 29.4679Z" fill="#FBC133"/>
<path d="M192.523 30.1054C192.311 28.0938 193.889 26.3418 195.911 26.3418H199.563C201.62 26.3418 203.208 28.1513 202.941 30.1913L200.455 49.1712H194.529L192.523 30.1054Z" fill="#FFD15E"/>
<path d="M154.771 79.1643C157.38 59.7782 173.926 45.3105 193.487 45.3105H199.55C218.442 45.3105 234.733 58.5856 238.547 77.0882V77.0882C241.499 91.4071 230.563 104.828 215.943 104.828H177.212C163.506 104.828 152.943 92.7475 154.771 79.1643V79.1643Z" fill="url(#paint1_linear_2535_6781)"/>
<rect x="187.044" y="75.4219" width="5.32356" height="8.19827" rx="2.66178" fill="#4A4642"/>
<rect x="200.128" y="75.4219" width="5.32356" height="8.19827" rx="2.66178" fill="#4A4642"/>
<rect x="188.107" y="77.3359" width="1.59707" height="2.44884" rx="0.798533" fill="white"/>
<rect x="201.195" y="77.3359" width="1.59707" height="2.44884" rx="0.798533" fill="white"/>
<path d="M230.103 74.0878C234.06 72.5292 235.35 69.4266 235.586 68.2852C241.711 71.2962 248.48 81.5483 242.826 95.0094C238.303 105.778 223.278 105.982 216.74 105.018C213.44 82.9249 225.155 76.0362 230.103 74.0878Z" fill="#FFD15E"/>
<path d="M163.45 74.0878C159.492 72.5292 158.202 69.4266 157.967 68.2852C151.841 71.2962 145.073 81.5483 150.727 95.0094C155.25 105.778 170.275 105.982 176.812 105.018C180.113 82.9249 168.397 76.0362 163.45 74.0878Z" fill="#FFD15E"/>
<path fill-rule="evenodd" clip-rule="evenodd" d="M248.004 114.719C248.004 107.334 242.018 101.348 234.633 101.348L159.583 101.348C152.198 101.348 146.212 107.334 146.212 114.719C146.212 118.172 147.521 121.32 149.671 123.693C150.279 124.365 150.335 125.406 149.726 126.078C140.575 136.173 135 149.569 135 164.268V206.123C135 229.25 153.748 247.999 176.875 247.999H217.346C240.473 247.999 259.221 229.25 259.221 206.123V164.268C259.221 149.568 253.645 136.17 244.492 126.075C243.883 125.403 243.939 124.363 244.548 123.691C246.696 121.318 248.004 118.171 248.004 114.719Z" fill="white"/>
<g filter="url(#filter0_di_2535_6781)">
<path d="M141.876 130.83C147.546 123.649 143.766 120.625 144.522 110.798C145.07 103.683 151.231 100.984 155.105 100.349L234.958 100.22C237.134 100.217 239.31 100.616 241.226 101.649C246.068 104.259 252.211 109.062 250.73 116.467C248.462 127.806 249.596 124.405 252.998 130.83C256.399 137.256 249.218 139.901 245.438 130.83C241.659 121.759 229.869 121.759 235.161 130.83C240.453 139.901 218.153 151.24 214.373 130.83C209.802 106.15 191.237 117.133 193.963 125.917C197.364 136.878 183.002 136.5 181.49 130.83C180.729 127.978 180.05 122.515 175.515 124.405C170.979 126.295 174.381 133.854 168.711 135.366C163.042 136.878 163.042 133.098 161.53 130.83C160.018 128.562 157.751 128.184 152.459 135.366C147.168 142.547 136.207 138.011 141.876 130.83Z" fill="url(#paint2_linear_2535_6781)" shape-rendering="crispEdges"/>
<path d="M156.213 99.8378C155.862 99.862 155.48 99.9057 155.074 99.9714L155.073 99.9714L155.043 99.9763C155.043 99.9763 155.043 99.9763 155.043 99.9763C151.111 100.621 144.713 103.387 144.145 110.769C143.88 114.223 144.172 116.883 144.419 119.129C144.525 120.094 144.623 120.982 144.664 121.825C144.734 123.238 144.652 124.548 144.215 125.939C143.777 127.332 142.976 128.827 141.58 130.596C140.115 132.451 139.679 134.197 140.026 135.665C140.373 137.132 141.48 138.23 142.911 138.832C145.768 140.035 150.016 139.319 152.764 135.59C154.079 133.805 155.199 132.5 156.158 131.581C157.12 130.66 157.903 130.144 158.542 129.909C159.168 129.68 159.652 129.721 160.056 129.913C160.476 130.114 160.855 130.499 161.215 131.04C161.521 131.498 161.761 132.022 162.018 132.581C162.061 132.675 162.105 132.771 162.15 132.867C162.451 133.517 162.789 134.199 163.275 134.762C163.772 135.337 164.42 135.787 165.33 135.983C166.23 136.177 167.357 136.118 168.809 135.731C170.326 135.326 171.258 134.505 171.856 133.47C172.441 132.456 172.698 131.25 172.91 130.095C172.937 129.947 172.964 129.8 172.99 129.655C173.173 128.638 173.345 127.678 173.685 126.845C174.065 125.914 174.642 125.178 175.66 124.754C176.73 124.308 177.516 124.317 178.112 124.56C178.716 124.807 179.195 125.321 179.588 126.024C179.981 126.726 180.27 127.582 180.509 128.457C180.628 128.892 180.733 129.327 180.833 129.746C180.844 129.79 180.854 129.835 180.865 129.879C180.953 130.248 181.038 130.604 181.125 130.927C181.542 132.494 182.834 133.652 184.403 134.342C185.976 135.033 187.882 135.278 189.632 134.982C191.383 134.687 193.017 133.84 193.981 132.307C194.949 130.769 195.196 128.615 194.324 125.805C193.687 123.754 194.285 121.545 195.66 119.737C197.035 117.929 199.158 116.561 201.49 116.198C203.807 115.837 206.352 116.465 208.607 118.685C210.873 120.915 212.867 124.773 214.001 130.899C214.959 136.073 217.104 139.296 219.752 141.032C222.398 142.768 225.49 142.981 228.265 142.251C231.035 141.522 233.525 139.845 234.987 137.743C236.456 135.632 236.901 133.063 235.487 130.64C234.184 128.406 233.996 126.833 234.357 125.859C234.704 124.922 235.617 124.405 236.898 124.405C239.479 124.405 243.248 126.556 245.09 130.975C246.052 133.286 247.243 134.879 248.455 135.855C249.665 136.829 250.918 137.204 251.978 137.013C253.055 136.82 253.862 136.053 254.15 134.909C254.434 133.779 254.21 132.312 253.332 130.653C252.469 129.024 251.749 128.016 251.196 127.249L251.183 127.231C250.632 126.467 250.288 125.989 250.099 125.379C249.91 124.77 249.867 123.994 250.025 122.635C250.182 121.277 250.533 119.379 251.101 116.542C251.868 112.707 250.654 109.544 248.645 107.024C246.643 104.515 243.846 102.632 241.405 101.316C239.42 100.246 237.178 99.8386 234.958 99.8422L156.222 99.9696L156.213 99.8378Z" stroke="white" stroke-opacity="0.45" stroke-width="0.755932" shape-rendering="crispEdges"/>
</g>
<path d="M212.552 93.6527C209.319 96.8851 207.757 103.674 211.508 108.367C212.032 109.023 213.085 109.783 215.131 110.104C215.898 110.224 217.784 109.515 218.625 109.558C219.719 109.613 221.785 110.395 222.855 110.286C224.954 110.074 225.639 109.111 226.69 108.06C230.706 104.043 227.863 95.6298 225.584 93.3516C223.306 91.0733 214.303 91.9018 212.552 93.6527Z" fill="url(#paint3_linear_2535_6781)"/>
<path d="M211.212 108.603C209.262 106.162 208.701 103.185 209.036 100.416C209.371 97.654 210.602 95.0677 212.285 93.3854C212.55 93.12 212.929 92.8928 213.368 92.6982C213.81 92.5015 214.336 92.3282 214.913 92.1804C216.067 91.8849 217.453 91.6854 218.851 91.6137C220.249 91.5421 221.673 91.5974 222.9 91.8193C224.113 92.0384 225.198 92.4309 225.852 93.0843C226.467 93.6993 227.094 94.6983 227.628 95.8917C228.165 97.0911 228.618 98.5123 228.87 99.9902C229.372 102.926 229.095 106.189 226.957 108.327C226.845 108.439 226.734 108.553 226.623 108.668C226.239 109.065 225.849 109.468 225.383 109.796C224.762 110.235 224.003 110.55 222.893 110.662C222.576 110.694 222.208 110.66 221.836 110.599C221.46 110.538 221.056 110.446 220.661 110.351C220.548 110.324 220.437 110.297 220.328 110.27C219.647 110.105 219.038 109.957 218.606 109.935C218.444 109.927 218.206 109.956 217.903 110.013C217.639 110.064 217.349 110.132 217.05 110.202C217.012 110.211 216.974 110.219 216.936 110.228C216.601 110.306 216.255 110.385 215.943 110.436C215.64 110.486 215.328 110.518 215.072 110.477C212.953 110.145 211.807 109.347 211.212 108.603Z" stroke="white" stroke-opacity="0.76" stroke-width="0.755932"/>
<path d="M181.648 93.6527C184.881 96.8851 186.443 103.674 182.693 108.367C182.168 109.023 181.116 109.783 179.07 110.104C178.302 110.224 176.416 109.515 175.575 109.558C174.481 109.613 172.415 110.395 171.345 110.286C169.246 110.074 168.561 109.111 167.51 108.06C163.494 104.043 166.337 95.6298 168.616 93.3516C170.894 91.0733 179.897 91.9018 181.648 93.6527Z" fill="url(#paint4_linear_2535_6781)"/>
<path d="M182.988 108.603C184.938 106.162 185.5 103.185 185.164 100.416C184.829 97.654 183.598 95.0677 181.916 93.3854C181.65 93.12 181.271 92.8928 180.833 92.6982C180.39 92.5015 179.864 92.3282 179.288 92.1804C178.133 91.8849 176.747 91.6854 175.349 91.6137C173.952 91.5421 172.528 91.5974 171.3 91.8193C170.087 92.0384 169.002 92.4309 168.348 93.0843C167.733 93.6993 167.106 94.6983 166.572 95.8917C166.035 97.0911 165.582 98.5123 165.33 99.9902C164.829 102.926 165.105 106.189 167.243 108.327C167.355 108.439 167.466 108.553 167.577 108.668C167.962 109.065 168.351 109.468 168.817 109.796C169.439 110.235 170.197 110.55 171.307 110.662C171.624 110.694 171.993 110.66 172.364 110.599C172.74 110.538 173.145 110.446 173.539 110.351C173.652 110.324 173.763 110.297 173.873 110.27C174.553 110.105 175.162 109.957 175.594 109.935C175.756 109.927 175.994 109.956 176.297 110.013C176.562 110.064 176.851 110.132 177.151 110.202C177.188 110.211 177.226 110.219 177.264 110.228C177.599 110.306 177.945 110.385 178.257 110.436C178.56 110.486 178.873 110.518 179.128 110.477C181.248 110.145 182.393 109.347 182.988 108.603Z" stroke="white" stroke-opacity="0.76" stroke-width="0.755932"/>
</g>
<defs>
<filter id="filter0_di_2535_6781" x="127.535" y="91.4648" width="139.109" height="67.5586" filterUnits="userSpaceOnUse" color-interpolation-filters="sRGB">
<feFlood flood-opacity="0" result="BackgroundImageFix"/>
<feColorMatrix in="SourceAlpha" type="matrix" values="0 0 0 0 0 0 0 0 0 0 0 0 0 0 0 0 0 0 127 0" result="hardAlpha"/>
<feOffset dy="4"/>
<feGaussianBlur stdDeviation="6"/>
<feComposite in2="hardAlpha" operator="out"/>
<feColorMatrix type="matrix" values="0 0 0 0 1 0 0 0 0 0.774567 0 0 0 0 0.200736 0 0 0 0.24 0"/>
<feBlend mode="normal" in2="BackgroundImageFix" result="effect1_dropShadow_2535_6781"/>
<feBlend mode="normal" in="SourceGraphic" in2="effect1_dropShadow_2535_6781" result="shape"/>
<feColorMatrix in="SourceAlpha" type="matrix" values="0 0 0 0 0 0 0 0 0 0 0 0 0 0 0 0 0 0 127 0" result="hardAlpha"/>
<feOffset dy="4"/>
<feGaussianBlur stdDeviation="6"/>
<feComposite in2="hardAlpha" operator="arithmetic" k2="-1" k3="1"/>
<feColorMatrix type="matrix" values="0 0 0 0 1 0 0 0 0 0.960689 0 0 0 0 0.860625 0 0 0 1 0"/>
<feBlend mode="normal" in2="shape" result="effect2_innerShadow_2535_6781"/>
</filter>
<linearGradient id="paint0_linear_2535_6781" x1="2.93727e-06" y1="39.691" x2="89.13" y2="210.178" gradientUnits="userSpaceOnUse">
<stop stop-color="#FFEEC6"/>
<stop offset="1" stop-color="#FFC846"/>
</linearGradient>
<linearGradient id="paint1_linear_2535_6781" x1="151.317" y1="59.9832" x2="212.606" y2="120.408" gradientUnits="userSpaceOnUse">
<stop stop-color="#FFEEC6"/>
<stop offset="1" stop-color="#FFDA82"/>
</linearGradient>
<linearGradient id="paint2_linear_2535_6781" x1="189.09" y1="90.6406" x2="239.25" y2="136.022" gradientUnits="userSpaceOnUse">
<stop stop-color="#FFD56B"/>
<stop offset="1" stop-color="#FFD569"/>
</linearGradient>
<linearGradient id="paint3_linear_2535_6781" x1="229.909" y1="104.855" x2="208.176" y2="99.7431" gradientUnits="userSpaceOnUse">
<stop stop-color="#FFEEC6"/>
<stop offset="1" stop-color="#FFDA82"/>
</linearGradient>
<linearGradient id="paint4_linear_2535_6781" x1="164.291" y1="104.855" x2="186.024" y2="99.7431" gradientUnits="userSpaceOnUse">
<stop stop-color="#FFEEC6"/>
<stop offset="1" stop-color="#FFDA82"/>
</linearGradient>
<clipPath id="clip0_2535_6781">
<path d="M0 16C0 7.16344 7.16344 0 16 0H266C274.837 0 282 7.16344 282 16V161H0V16Z" fill="white"/>
</clipPath>
</defs>
</svg>
