<svg width="113" height="40" viewBox="0 0 113 40" fill="none" xmlns="http://www.w3.org/2000/svg">
<g id="img-logo-typo" clip-path="url(#clip0_1245_34127)">
<path id="Union" fill-rule="evenodd" clip-rule="evenodd" d="M2.8428 13.2194C1.52162 13.2196 0.450684 14.2907 0.450684 15.6118C0.450684 16.9331 1.5218 18.0042 2.84308 18.0042H15.2796V21.2012H7.31996C6.07945 21.2012 5.07382 22.2068 5.07382 23.4473C5.07382 24.6878 6.07945 25.6935 7.31996 25.6935H23.8215C24.3791 25.6935 24.8312 26.1455 24.8312 26.7031C24.8312 27.2608 24.3791 27.7128 23.8215 27.7128H10.7808C7.67708 27.7128 5.16104 30.2288 5.16104 33.3325C5.16104 36.4362 7.67708 38.9523 10.7808 38.9523H29.2711C30.6248 38.9523 31.7222 37.8548 31.7222 36.5011C31.7222 35.1474 30.6248 34.05 29.2711 34.05H11.9344C11.3972 34.05 10.9618 33.6145 10.9618 33.0774C10.9618 32.5402 11.3972 32.1048 11.9344 32.1048H25.1801C28.191 32.1048 30.6319 29.6639 30.6319 26.653C30.6319 23.642 28.191 21.2012 25.1801 21.2012H21.1239V18.0042H37.3722C38.8915 21.1842 42.1378 23.3811 45.8971 23.3811H52.9627C54.2755 23.3811 55.3397 22.3169 55.3397 21.0042C55.3397 19.6914 54.2755 18.6272 52.9627 18.6272H46.9657C44.3642 18.6272 42.2553 16.5183 42.2553 13.9168C42.2553 11.3154 44.3642 9.20645 46.9657 9.20645H52.9845C54.2852 9.20645 55.3397 8.152 55.3397 6.85127C55.3397 5.55054 54.2852 4.49609 52.9845 4.49609H45.8971C40.924 4.49609 36.8489 8.3406 36.4815 13.2197H30.9808V11.44C30.9808 5.58205 26.232 0.833208 20.374 0.833208H18.3262C17.0255 0.833208 15.971 1.88766 15.971 3.18839C15.971 4.48912 17.0255 5.54357 18.3262 5.54357H18.6596C22.2367 5.54357 25.1365 8.44336 25.1365 12.0204V13.2197L16.3333 13.2185V11.2231C16.3333 5.48428 11.6811 0.832031 5.94224 0.832031H3.98404C2.68331 0.832031 1.62886 1.88648 1.62886 3.18721C1.62886 4.48794 2.68331 5.54239 3.98404 5.54239H4.22788C7.6858 5.54239 10.489 8.34559 10.489 11.8035V13.2185L2.8428 13.2194ZM96.1811 3.59941C96.1811 2.07103 97.4201 0.832031 98.9485 0.832031C100.477 0.832031 101.716 2.07103 101.716 3.59941V36.398C101.716 37.9264 100.477 39.1654 98.9485 39.1654C97.4201 39.1654 96.1811 37.9264 96.1811 36.398V3.59941ZM66.3292 10.2881H66.3391V10.127C66.3391 7.61968 68.3717 5.58707 70.8791 5.58707C71.8329 5.58707 72.6062 4.81382 72.6062 3.85997V3.20955C72.6062 1.89648 71.5417 0.832031 70.2287 0.832031H69.351C64.6254 0.832031 60.7944 4.66296 60.7944 9.38866V10.2881L60.7944 25.6098C60.7944 27.1382 62.0334 28.3772 63.5618 28.3772C65.0902 28.3772 66.3292 27.1382 66.3292 25.6098V10.2881ZM50.2141 38.9137C45.2819 38.9137 41.2836 34.9154 41.2836 29.9833V28.5989C41.2836 26.9971 42.5822 25.6985 44.184 25.6985H44.2986C45.8371 25.6985 47.0844 26.9458 47.0844 28.4843C47.0844 31.691 49.6839 34.2906 52.8907 34.2906H64.9238C65.9108 34.2906 66.7109 35.0907 66.7109 36.0777V36.6022C66.7109 37.8788 65.676 38.9137 64.3993 38.9137H50.2141ZM74.8972 8.75781C73.4511 8.75781 72.2788 9.93011 72.2788 11.3762C72.2788 12.8223 73.4511 13.9946 74.8972 13.9946H78.9309L78.9309 19.5068C78.8515 21.8129 76.9571 23.658 74.6316 23.658C73.2864 23.658 72.1958 24.7577 72.1958 26.103C72.1958 27.4584 73.2946 28.5664 74.65 28.5664H76.8168C78.7583 28.5664 80.5415 27.8884 81.9426 26.7563C83.3472 27.9002 85.1397 28.5859 87.0924 28.5859H89.2591C90.6146 28.5859 91.7133 27.4779 91.7133 26.1225C91.7133 24.7773 90.6228 23.6776 89.2776 23.6776C86.9494 23.6776 85.0531 21.828 84.978 19.5181V18.8291H84.978L84.978 13.9946H89.259C90.7051 13.9946 91.8774 12.8223 91.8774 11.3762C91.8774 9.93011 90.7051 8.75781 89.259 8.75781H74.8972Z" fill="#4A4642"/>
</g>
<defs>
<clipPath id="clip0_1245_34127">
<rect width="112" height="40" fill="white" transform="translate(0.333496)"/>
</clipPath>
</defs>
</svg>
