<svg width="25" height="24" viewBox="0 0 25 24" fill="none" xmlns="http://www.w3.org/2000/svg">
<path fill-rule="evenodd" clip-rule="evenodd" d="M12.9627 4.38274C12.9627 4.00039 12.6528 3.69043 12.2704 3.69043C11.8881 3.69043 11.5781 4.00039 11.5781 4.38274V12.8652L8.35415 9.64123C8.08379 9.37086 7.64544 9.37086 7.37508 9.64123C7.10471 9.91159 7.10471 10.3499 7.37508 10.6203L11.7809 15.0261C12.0513 15.2965 12.4896 15.2965 12.76 15.0261L17.1658 10.6203C17.4361 10.3499 17.4361 9.91159 17.1658 9.64123C16.8954 9.37086 16.4571 9.37086 16.1867 9.64123L12.9627 12.8652V4.38274ZM4.65415 14.9999C4.65415 14.6176 4.34419 14.3076 3.96184 14.3076C3.57949 14.3076 3.26953 14.6176 3.26953 14.9999V19.1538C3.26953 19.5361 3.57949 19.8461 3.96184 19.8461H20.5772C20.9596 19.8461 21.2695 19.5361 21.2695 19.1538V14.9999C21.2695 14.6176 20.9596 14.3076 20.5772 14.3076C20.1949 14.3076 19.8849 14.6176 19.8849 14.9999V18.4615H4.65415V14.9999Z" fill="white"/>
</svg>
