<svg width="21" height="20" viewBox="0 0 21 20" fill="none" xmlns="http://www.w3.org/2000/svg">
<g clip-path="url(#clip0_664_18618)">
<circle cx="10.5" cy="10" r="10" fill="#66625D"/>
<g clip-path="url(#clip1_664_18618)">
<path fill-rule="evenodd" clip-rule="evenodd" d="M7.25851 5.99121C7.04626 5.77897 6.70215 5.77897 6.48991 5.99121C6.27767 6.20345 6.27767 6.54757 6.48991 6.75981L9.72866 9.99856L6.48963 13.2376C6.27739 13.4498 6.27739 13.7939 6.48963 14.0062C6.70187 14.2184 7.04598 14.2184 7.25822 14.0062L10.4973 10.7672L13.7363 14.0062C13.9485 14.2184 14.2926 14.2184 14.5049 14.0062C14.7171 13.7939 14.7171 13.4498 14.5049 13.2376L11.2658 9.99856L14.5046 6.75981C14.7168 6.54757 14.7168 6.20345 14.5046 5.99121C14.2924 5.77897 13.9482 5.77897 13.736 5.99121L10.4973 9.22996L7.25851 5.99121Z" fill="white"/>
</g>
</g>
<defs>
<clipPath id="clip0_664_18618">
<rect width="20" height="20" fill="white" transform="translate(0.5)"/>
</clipPath>
<clipPath id="clip1_664_18618">
<rect width="13.3333" height="13.3333" fill="white" transform="translate(3.83203 3.33203)"/>
</clipPath>
</defs>
</svg>
