<svg width="21" height="20" viewBox="0 0 21 20" fill="none" xmlns="http://www.w3.org/2000/svg">
<g clip-path="url(#clip0_1389_12571)">
<circle cx="10.5" cy="10" r="10" fill="#CFCECD"/>
<g clip-path="url(#clip1_1389_12571)">
<path fill-rule="evenodd" clip-rule="evenodd" d="M7.25863 5.99121C7.04639 5.77897 6.70227 5.77897 6.49003 5.99121C6.27779 6.20345 6.27779 6.54757 6.49003 6.75981L9.72878 9.99856L6.48975 13.2376C6.27751 13.4498 6.27751 13.7939 6.48975 14.0062C6.70199 14.2184 7.0461 14.2184 7.25835 14.0062L10.4974 10.7672L13.7364 14.0062C13.9487 14.2184 14.2928 14.2184 14.505 14.0062C14.7172 13.7939 14.7172 13.4498 14.505 13.2376L11.266 9.99856L14.5047 6.75981C14.717 6.54757 14.717 6.20345 14.5047 5.99121C14.2925 5.77897 13.9484 5.77897 13.7361 5.99121L10.4974 9.22996L7.25863 5.99121Z" fill="white"/>
</g>
</g>
<defs>
<clipPath id="clip0_1389_12571">
<rect width="20" height="20" fill="white" transform="translate(0.5)"/>
</clipPath>
<clipPath id="clip1_1389_12571">
<rect width="13.3333" height="13.3333" fill="white" transform="translate(3.83203 3.33203)"/>
</clipPath>
</defs>
</svg>
