<svg width="26" height="26" viewBox="0 0 26 26" fill="none" xmlns="http://www.w3.org/2000/svg">
<path fill-rule="evenodd" clip-rule="evenodd" d="M17.6653 9.41654C19.5062 9.41654 20.9985 7.92419 20.9985 6.08327C20.9985 4.24236 19.5062 2.75 17.6653 2.75C15.8244 2.75 14.332 4.24236 14.332 6.08327C14.332 6.4609 14.3948 6.82386 14.5105 7.16228L10.1572 9.96085C9.63317 9.61758 9.00652 9.41797 8.33326 9.41797C6.49235 9.41797 5 10.9103 5 12.7512C5 14.5922 6.49235 16.0845 8.33326 16.0845C9.00741 16.0845 9.63483 15.8844 10.1593 15.5403L14.5102 18.3373C14.3947 18.6754 14.332 19.038 14.332 19.4153C14.332 21.2562 15.8244 22.7486 17.6653 22.7486C19.5062 22.7486 20.9985 21.2562 20.9985 19.4153C20.9985 17.5744 19.5062 16.082 17.6653 16.082C16.9298 16.082 16.2499 16.3202 15.6987 16.7237L11.4323 13.981C11.5834 13.6005 11.6665 13.1856 11.6665 12.7512C11.6665 12.3161 11.5831 11.9004 11.4315 11.5193L15.6995 8.77549C16.2507 9.17858 16.9302 9.41654 17.6653 9.41654Z" fill="white"/>
<path d="M20.2524 6.08327C20.2524 7.50998 19.0959 8.66654 17.6692 8.66654C16.2425 8.66654 15.0859 7.50998 15.0859 6.08327C15.0859 4.65657 16.2425 3.5 17.6692 3.5C19.0959 3.5 20.2524 4.65657 20.2524 6.08327Z" fill="#4A4642" stroke="white" stroke-width="1.5"/>
<path d="M10.9165 12.7473C10.9165 14.174 9.75994 15.3306 8.33326 15.3306C6.90657 15.3306 5.75 14.174 5.75 12.7473C5.75 11.3206 6.90657 10.1641 8.33326 10.1641C9.75994 10.1641 10.9165 11.3206 10.9165 12.7473Z" fill="#4A4642" stroke="white" stroke-width="1.5"/>
<path d="M20.2524 19.4192C20.2524 20.8459 19.0959 22.0025 17.6692 22.0025C16.2425 22.0025 15.0859 20.8459 15.0859 19.4192C15.0859 17.9925 16.2425 16.8359 17.6692 16.8359C19.0959 16.8359 20.2524 17.9925 20.2524 19.4192Z" fill="#4A4642" stroke="white" stroke-width="1.5"/>
</svg>
